<svg width="32" height="24" viewBox="0 0 32 24" fill="none" xmlns="http://www.w3.org/2000/svg">
<path d="M23.4951 0C24.2908 0 25.0538 0.31607 25.6164 0.87868C26.179 1.44129 26.4951 2.20435 26.4951 3V6.0525C27.8108 6.23996 29.0064 6.91939 29.8408 7.95374C30.6752 8.98809 31.0863 10.3004 30.9911 11.6259C30.8959 12.9515 30.3016 14.1916 29.328 15.0961C28.3545 16.0007 27.0741 16.5024 25.7451 16.5H24.5631C23.3788 18.3938 21.7199 19.9451 19.7511 21H23.4951C23.8929 21 24.2745 21.158 24.5558 21.4393C24.8371 21.7206 24.9951 22.1022 24.9951 22.5C24.9951 22.8978 24.8371 23.2794 24.5558 23.5607C24.2745 23.842 23.8929 24 23.4951 24H3.99512C3.59729 24 3.21576 23.842 2.93446 23.5607C2.65315 23.2794 2.49512 22.8978 2.49512 22.5C2.49512 22.1022 2.65315 21.7206 2.93446 21.4393C3.21576 21.158 3.59729 21 3.99512 21H7.73912C5.70114 19.9119 3.99715 18.2904 2.8093 16.3089C1.62144 14.3273 0.994375 12.0603 0.995118 9.75V3C0.995118 2.20435 1.31119 1.44129 1.8738 0.87868C2.43641 0.31607 3.19947 0 3.99512 0H23.4951ZM26.4951 9.1275V9.75C26.4951 11.052 26.3001 12.309 25.9371 13.4925C26.4317 13.4505 26.8986 13.2462 27.265 12.9113C27.6313 12.5764 27.8767 12.1297 27.9628 11.6408C28.0489 11.152 27.9709 10.6483 27.741 10.2084C27.5111 9.76848 27.1421 9.41692 26.6916 9.2085L26.4951 9.1275Z" fill="white"/>
</svg>
