<svg width="25" height="24" viewBox="0 0 25 24" fill="none" xmlns="http://www.w3.org/2000/svg">
<path d="M2.024 0L24.5 22.464L22.964 24L21.776 22.8H0.5V20.4H19.376L16.628 17.652C16.1 17.868 15.5 18 14.9 18H7.7C5.048 18 2.9 15.852 2.9 13.2V3.924L0.5 1.524L2.024 0ZM24.5 3.6V7.2C24.5 8.52 23.42 9.6 22.1 9.6H19.7V13.2C19.7 13.632 19.628 14.04 19.52 14.448L6.272 1.2H22.1C22.7365 1.2 23.347 1.45286 23.7971 1.90294C24.2471 2.35303 24.5 2.96348 24.5 3.6ZM22.1 3.6H19.7V7.2H22.1V3.6Z" fill="white"/>
</svg>
