<svg width="42" height="39" viewBox="0 0 42 39" fill="none" xmlns="http://www.w3.org/2000/svg">
<path d="M0.0221693 37.8442C0.133016 37.2234 0.487726 36.6913 0.997622 36.3588C4.21218 34.3414 7.49325 32.3905 10.7522 30.4396C11.0847 30.1292 11.4394 29.8632 11.8163 29.6415C10.9295 29.2868 10.2644 29.0872 9.59934 28.7769C6.11875 27.225 4.03483 23.6114 4.45605 19.8204C4.52255 18.9337 4.9216 18.2686 5.83055 18.3351C6.73949 18.4016 7.02769 19.0667 7.02769 19.9978C7.02769 24.6977 9.75453 27.358 14.2106 26.959C15.2525 26.8925 16.2723 26.6264 17.2256 26.2052C19.5977 24.9859 21.9034 23.6336 24.209 22.2812C27.5565 20.3082 30.9485 18.2907 34.2295 16.1625C35.2493 15.4531 36.1804 14.6328 37.0007 13.7238C39.1068 11.4404 39.4837 8.93526 38.1757 6.49662C36.9342 3.81413 34.0522 2.32878 31.148 2.86084C28.2881 3.3264 25.8495 4.7009 23.4109 6.18625C20.9057 7.71594 18.4449 9.28997 15.8954 10.7753C15.4521 11.0635 14.92 11.1522 14.4101 11.0413C13.9889 10.8418 13.7228 10.4428 13.6563 9.97722C13.7228 9.46732 14.011 9.00176 14.4323 8.69139C16.6492 7.27255 18.9105 5.92022 21.1939 4.52355C22.7901 3.57026 24.342 2.57264 25.9825 1.68586C28.2438 0.422209 30.8598 -0.109856 33.4314 0.178346C40.4148 0.909936 42.6317 8.00414 40.4813 13.0588C39.2398 15.963 37.0007 17.7808 34.3625 19.3327C23.6326 25.7397 12.9469 32.2131 2.23911 38.6644C1.90657 38.8861 1.52969 38.997 1.13064 38.997C0.554234 39.0413 0.0443388 38.5979 0 38.0215C0.0221694 37.955 0.0221693 37.9107 0.0221693 37.8442Z" fill="#46B979"/>
</svg>
