<svg width="42" height="39" viewBox="0 0 42 39" fill="none" xmlns="http://www.w3.org/2000/svg">
<path d="M7.99124 38.8252C1.00789 38.0936 -1.20905 30.9994 0.941381 25.9448C2.18287 23.0406 4.42197 21.2227 7.06013 19.6708C17.7901 13.2639 28.4757 6.79041 39.1836 0.339117C40.3142 -0.348134 41.4448 0.0509151 41.4227 1.18155C41.3118 1.78013 40.9793 2.33436 40.4472 2.6669C37.2327 4.68432 33.9516 6.63522 30.6927 8.58613C30.3602 8.85216 30.0719 9.05168 29.6286 9.38422C30.5153 9.73893 31.1804 9.93846 31.8455 10.2488C35.3261 11.8007 37.41 15.4143 36.9666 19.2053C36.9001 20.092 36.5011 20.7571 35.5921 20.6906C34.6832 20.6241 34.395 19.959 34.395 19.0501C34.395 14.3502 31.6681 11.6898 27.2121 12.0889C26.1701 12.1554 25.1503 12.4214 24.1971 12.8426C21.8249 14.062 19.5193 15.4143 17.2137 16.7666C13.8661 18.7397 10.4742 20.7571 7.19315 22.8854C6.17335 23.5948 5.24224 24.4151 4.42197 25.324C2.31588 27.6075 1.96117 30.1126 3.247 32.5512C4.48848 35.2337 7.3705 36.7191 10.2747 36.187C13.1345 35.7214 15.5732 34.3469 18.0118 32.8616C20.5169 31.3541 22.9777 29.7579 25.5272 28.2725C25.9706 27.9843 26.5027 27.8957 27.0126 28.0065C27.4338 28.206 27.722 28.6051 27.7663 29.0706C27.6998 29.5805 27.4116 30.0461 26.9904 30.3565C24.7735 31.7753 22.5122 33.1276 20.2287 34.5243C18.6325 35.4776 17.0807 36.4752 15.4402 37.362C13.5779 38.4039 11.494 38.9582 9.36575 38.936C8.90019 38.8917 8.4568 38.8695 7.99124 38.8252Z" fill="#3C4A58"/>
</svg>
