<svg width="247" height="80" viewBox="0 0 247 80" fill="none" xmlns="http://www.w3.org/2000/svg">
<path d="M0.0306596 78.4588C0.178455 77.6312 0.6514 76.9217 1.33126 76.4784C5.61734 73.7885 9.9921 71.1873 14.3373 68.5861C14.7807 68.1722 15.2536 67.8175 15.7561 67.5219C14.5738 67.049 13.687 66.783 12.8002 66.3691C8.15943 64.3 5.38087 59.4818 5.94249 54.4272C6.03117 53.2449 6.56323 52.3581 7.77516 52.4468C8.98708 52.5354 9.37135 53.4222 9.37135 54.6637C9.37135 60.9302 13.0071 64.4773 18.9485 63.9453C20.3378 63.8566 21.6975 63.5019 22.9686 62.9403C26.1314 61.3145 29.2056 59.5114 32.2797 57.7083C36.7431 55.0775 41.2657 52.3876 45.6405 49.55C47.0002 48.6041 48.2417 47.5104 49.3354 46.2984C52.1435 43.2538 52.646 39.9137 50.902 36.6622C49.2467 33.0855 45.404 31.105 41.5317 31.8145C37.7186 32.4352 34.4671 34.2679 31.2156 36.2483C27.8754 38.2879 24.5943 40.3866 21.195 42.3671C20.6038 42.7514 19.8944 42.8696 19.2146 42.7218C18.6529 42.4558 18.2982 41.9237 18.2095 41.3029C18.2982 40.6231 18.6825 40.0023 19.2441 39.5885C22.2 37.6967 25.2151 35.8936 28.2597 34.0314C30.3879 32.7603 32.4571 31.4302 34.6444 30.2478C37.6595 28.5629 41.1475 27.8535 44.5763 28.2378C53.8875 29.2132 56.8434 38.6722 53.9761 45.4117C52.3208 49.2839 49.3354 51.7078 45.8178 53.7769C31.5112 62.3195 17.2637 70.9508 2.98658 79.5525C2.54319 79.8481 2.04068 79.9959 1.50862 79.9959C0.74008 80.055 0.060217 79.4638 0.00109863 78.6953C0.0306578 78.6066 0.0306596 78.5475 0.0306596 78.4588ZM17.3228 51.7669C8.01164 50.7914 5.05571 41.3325 7.92295 34.593C9.57827 30.7208 12.5637 28.2969 16.0813 26.2278C30.3879 17.6852 44.6354 9.05389 58.9125 0.452171C60.42 -0.464163 61.9571 0.0679018 61.898 1.54586C61.7502 2.34396 61.3068 3.08294 60.5974 3.52632C56.3113 6.21621 51.9366 8.81742 47.5914 11.4186C47.148 11.7733 46.7637 12.0394 46.1725 12.4828C47.3549 12.9557 48.2417 13.2217 49.1284 13.6356C53.7692 15.7047 56.5478 20.5228 55.9566 25.5775C55.8679 26.7598 55.3359 27.6466 54.1239 27.5579C52.912 27.4693 52.5277 26.5825 52.5277 25.3706C52.5277 19.104 48.892 15.5569 42.9506 16.089C41.5613 16.1777 40.2016 16.5324 38.9305 17.094C35.7677 18.7197 32.6935 20.5228 29.6194 22.326C25.1559 24.9567 20.6334 27.6466 16.2586 30.4843C14.8989 31.4302 13.6574 32.5239 12.5637 33.7358C9.75562 36.7804 9.28267 40.1206 10.9971 43.3721C12.6524 46.9487 16.4951 48.9292 20.3674 48.2198C24.1805 47.599 27.432 45.7664 30.6835 43.7859C34.0237 41.7759 37.3048 39.6476 40.7041 37.6672C41.2953 37.2829 42.0047 37.1647 42.6845 37.3125C43.2462 37.5785 43.6304 38.1106 43.6895 38.7313C43.6009 39.4112 43.2166 40.0319 42.655 40.4457C39.6991 42.3375 36.684 44.1406 33.6394 46.0029C31.5112 47.2739 29.442 48.6041 27.2546 49.7864C24.7717 51.1757 21.9931 51.9147 19.1554 51.8851C18.5347 51.8556 17.9435 51.826 17.3228 51.7669Z" fill="#3C4A58"/>
<path d="M86.499 48.7321C86.0851 49.6188 85.4939 50.3874 84.755 51.0081C83.9569 51.6584 83.0405 52.1314 82.0355 52.427C80.8827 52.7521 79.7299 52.9295 78.5475 52.8999C76.7444 52.8999 74.9413 52.5748 73.2564 51.9836C71.5125 51.3333 69.9163 50.3578 68.527 49.1163L71.6011 45.4214C72.6062 46.2491 73.7294 46.9585 74.9413 47.5201C76.0941 48.0522 77.3652 48.3182 78.6658 48.3182C79.523 48.3773 80.4098 48.1704 81.1487 47.7566C81.7104 47.4315 82.0651 46.7812 82.0355 46.1309V46.0422C82.0355 45.7466 81.9764 45.4214 81.8582 45.1554C81.6808 44.8598 81.4443 44.5938 81.1487 44.4164C80.7054 44.1504 80.2029 43.9139 79.7003 43.7661C79.0796 43.5296 78.3111 43.3227 77.3061 43.0567C76.1237 42.7611 75.03 42.436 74.0545 42.0812C73.1678 41.7857 72.3401 41.3423 71.6011 40.7511C70.9508 40.219 70.3892 39.5392 70.0345 38.7706C69.6502 37.8247 69.4433 36.8197 69.4729 35.8147V35.726C69.4729 34.721 69.6798 33.716 70.0936 32.8292C70.4779 31.972 71.0691 31.2035 71.808 30.5827C72.5766 29.9324 73.4634 29.4595 74.3797 29.1343C75.4438 28.7796 76.5671 28.6023 77.7199 28.6023C79.3456 28.5727 80.9714 28.8683 82.4789 29.4004C83.9273 29.9324 85.2575 30.701 86.4694 31.6469L83.8091 35.5782C82.8336 34.9279 81.7695 34.3367 80.7054 33.8638C79.7595 33.4795 78.7249 33.2726 77.6903 33.243C76.8922 33.1839 76.0941 33.3908 75.4143 33.8047C74.9413 34.1298 74.6457 34.6915 74.6753 35.2531V35.3418C74.6753 35.6965 74.764 36.0512 74.9118 36.3468C75.0891 36.6719 75.3552 36.9379 75.7099 37.0857C76.2124 37.3518 76.7444 37.5882 77.2765 37.736C77.9268 37.9725 78.7545 38.1794 79.7595 38.4455C80.8532 38.7115 81.9173 39.0662 82.9519 39.5096C83.8091 39.8643 84.6072 40.3373 85.3166 40.9284C85.9373 41.4605 86.4398 42.1108 86.765 42.8793C87.0901 43.7366 87.2675 44.6529 87.2379 45.5692V45.6579C87.1788 46.6925 86.9423 47.7566 86.499 48.7321Z" fill="#46B97A"/>
<path d="M105.594 33.716V52.6043H100.421V33.716H93.2384V28.8978H112.747V33.6864H105.594V33.716Z" fill="#46B97A"/>
<path d="M137.548 52.6043L135.39 47.2836H125.458L123.3 52.6043H118.009L128.089 28.75H132.848L142.928 52.5747H137.548V52.6043ZM130.424 34.987L127.32 42.6429H133.587L130.424 34.987Z" fill="#46B97A"/>
<path d="M155.047 33.6273V38.741H166.309V43.441H155.047V52.6043H149.903V28.8978H167.816V33.5977H155.047V33.6273Z" fill="#46B97A"/>
<path d="M180.409 33.6273V38.741H191.671V43.441H180.409V52.6043H175.236V28.8978H193.149V33.5977H180.409V33.6273Z" fill="#46B97A"/>
<path d="M200.568 52.6043V28.8978H218.244V33.5091H205.652V38.2977H216.737V42.9089H205.652V47.8748H218.451V52.4861H200.597V52.6043H200.568Z" fill="#46B97A"/>
<path d="M240.68 52.6043L235.654 45.0372H231.575V52.6043H226.402V28.8978H237.162C239.527 28.7501 241.832 29.489 243.695 30.967C245.291 32.445 246.148 34.5732 246 36.731V36.8197C246.059 38.475 245.586 40.1303 244.611 41.4901C243.665 42.702 242.424 43.6183 240.975 44.1208L246.71 52.5748L240.68 52.6043ZM240.768 36.9971C240.857 36.0216 240.443 35.0757 239.675 34.455C238.817 33.8342 237.753 33.5386 236.689 33.6273H231.516V40.3964H236.778C237.842 40.4851 238.876 40.1303 239.704 39.48C240.384 38.8593 240.768 37.9725 240.709 37.0562V36.9971H240.768Z" fill="#46B97A"/>
<path d="M75.0891 24.5133H72.7244V13.2809H68.527V11.123H79.3456V13.2809H75.1482V24.5133H75.0891Z" fill="#3C4A58"/>
<path d="M84.1046 18.8675V24.5133H81.799V11.123H84.1046V16.6802H90.4894V11.123H92.795V24.5133H90.4894V18.8675H84.1046Z" fill="#3C4A58"/>
<path d="M106.067 13.2217H98.5296V16.6506H105.18V18.7493H98.5296V22.326H106.156V24.4247H96.224V11.123H106.067V13.2217Z" fill="#3C4A58"/>
<path d="M72.0705 59.3512C72.1296 59.5285 72.2479 59.7059 72.4252 59.7946C72.6322 59.9424 72.8686 60.0606 73.1347 60.1493C73.5189 60.2675 73.8736 60.3858 74.2579 60.4449C74.9969 60.5631 75.7063 60.8587 76.3271 61.3317C76.7704 61.7159 77.0069 62.2776 76.9774 62.8687C76.9774 63.1939 76.8887 63.5486 76.7409 63.8442C76.5931 64.1398 76.4157 64.3762 76.1793 64.5832C75.8837 64.7901 75.5881 64.9379 75.2629 65.0561C74.9082 65.1743 74.5239 65.2335 74.1397 65.2335C72.8686 65.2926 71.6272 64.7901 70.7108 63.9033L71.2724 63.1939C71.6567 63.5486 72.1001 63.8737 72.573 64.0807C73.046 64.2876 73.5781 64.3762 74.1101 64.3762C74.5831 64.4058 75.0856 64.258 75.4698 63.992C75.795 63.7555 76.0019 63.3417 76.0019 62.9279C76.0019 62.7505 75.9723 62.5731 75.9132 62.3958C75.8541 62.2184 75.7063 62.0706 75.5585 61.9524C75.3516 61.8046 75.1447 61.6864 74.9082 61.5977C74.5535 61.4795 74.1988 61.3612 73.8145 61.3021C73.3711 61.2134 72.9573 61.0952 72.5435 60.9474C72.2183 60.8292 71.9227 60.6814 71.6567 60.4744C71.4498 60.2971 71.2429 60.0606 71.1246 59.8241C70.8882 59.233 70.8882 58.5531 71.1542 57.9619C71.302 57.6663 71.4794 57.4298 71.7158 57.2229C71.9819 57.016 72.2775 56.8387 72.6026 56.75C72.9573 56.6317 73.312 56.5726 73.6963 56.5726C74.2579 56.5726 74.79 56.6613 75.322 56.8387C75.795 57.016 76.2384 57.2821 76.6226 57.5776L76.061 58.3166C75.7063 58.021 75.322 57.7846 74.8787 57.6072C74.4944 57.4594 74.0806 57.4003 73.6667 57.3707C73.4303 57.3707 73.1642 57.4003 72.9278 57.4594C72.7208 57.5481 72.5435 57.6368 72.3661 57.755C72.2183 57.8732 72.1001 58.021 72.0114 58.1984C71.9227 58.3757 71.8932 58.5531 71.8932 58.7305C71.9523 58.9669 71.9819 59.1738 72.0705 59.3512Z" fill="#3C4A58"/>
<path d="M84.2489 65.1152H83.2735V57.5776H80.4653V56.6909H87.0275V57.5776H84.2193V65.1152H84.2489Z" fill="#3C4A58"/>
<path d="M97.9939 65.1152H96.9888L96.0134 62.8687H91.4613L90.4563 65.1152H89.5104L93.3235 56.6022H94.2103L97.9939 65.1152ZM93.7078 57.755L91.7864 62.0706H95.5996L93.7078 57.755Z" fill="#3C4A58"/>
<path d="M108.073 57.5776H102.989V60.5631H107.541V61.4499H102.989V65.1152H102.014V56.6909H108.044L108.073 57.5776Z" fill="#3C4A58"/>
<path d="M118.301 57.5776H113.217V60.5631H117.769V61.4499H113.217V65.1152H112.241V56.6909H118.271L118.301 57.5776Z" fill="#3C4A58"/>
<path d="M123.562 56.6909V65.1152H122.587V56.6909H123.562Z" fill="#3C4A58"/>
<path d="M134.559 56.6909H135.475V65.1152H134.736L129.297 58.1984V65.1152H128.381V56.6909H129.268L134.559 63.4304V56.6909Z" fill="#3C4A58"/>
<path d="M146.057 64.8788C145.466 65.1448 144.786 65.2926 144.136 65.263C143.515 65.263 142.924 65.1448 142.333 64.9083C141.83 64.7014 141.357 64.3763 140.973 63.992C140.589 63.6077 140.293 63.1348 140.145 62.6323C139.938 62.0707 139.85 61.509 139.85 60.9179C139.85 60.3562 139.938 59.765 140.145 59.233C140.529 58.1984 141.328 57.3412 142.333 56.8682C142.865 56.6318 143.456 56.5135 144.047 56.5135C144.372 56.5135 144.697 56.5431 145.022 56.6022C145.318 56.6613 145.584 56.7204 145.85 56.8387C146.087 56.9274 146.323 57.0456 146.56 57.1934C146.796 57.3412 147.003 57.489 147.21 57.6663L146.589 58.3758C146.412 58.2575 146.294 58.1097 146.116 57.9915C145.939 57.8733 145.761 57.755 145.555 57.6959C145.318 57.6072 145.111 57.5777 144.904 57.4594C144.638 57.3708 144.372 57.3412 144.106 57.3708C143.663 57.3708 143.249 57.4594 142.835 57.6368C142.451 57.8141 142.096 58.0506 141.83 58.3758C141.564 58.7009 141.328 59.0852 141.18 59.4695C141.032 59.9128 140.943 60.3562 140.943 60.8292C140.943 61.3021 141.032 61.7751 141.18 62.248C141.328 62.6618 141.564 63.0166 141.83 63.3417C142.126 63.6669 142.48 63.9329 142.894 64.0807C143.338 64.258 143.781 64.3467 144.254 64.3467C144.727 64.3467 145.17 64.258 145.614 64.0807C145.998 63.9624 146.353 63.726 146.678 63.4599V61.3612H144.136V60.5336H147.594V63.8738C147.121 64.2876 146.619 64.6423 146.057 64.8788Z" fill="#3C4A58"/>
<path d="M158.797 59.3512C158.856 59.5285 158.974 59.7059 159.152 59.7946C159.359 59.9424 159.595 60.0606 159.861 60.1493C160.245 60.2675 160.6 60.3858 160.984 60.4449C161.723 60.5631 162.433 60.8587 163.054 61.3317C163.497 61.7159 163.733 62.2776 163.704 62.8687C163.704 63.1939 163.615 63.5486 163.467 63.8442C163.349 64.1398 163.142 64.4058 162.906 64.5832C162.61 64.7901 162.315 64.9379 161.989 65.0561C161.635 65.1743 161.251 65.2335 160.866 65.2335C159.595 65.2926 158.354 64.7901 157.437 63.9033L157.999 63.1939C158.383 63.5486 158.827 63.8737 159.3 64.0807C159.773 64.2876 160.305 64.3762 160.837 64.3762C161.31 64.4058 161.812 64.258 162.196 63.992C162.522 63.7555 162.728 63.3417 162.728 62.9279C162.728 62.7505 162.699 62.5731 162.64 62.3958C162.581 62.2184 162.462 62.0411 162.285 61.9524C162.078 61.8046 161.871 61.6864 161.635 61.5977C161.28 61.4795 160.925 61.3612 160.541 61.3021C160.098 61.2134 159.684 61.0952 159.27 60.9474C158.945 60.8292 158.649 60.6814 158.383 60.4744C158.176 60.2971 157.969 60.0606 157.851 59.8241C157.615 59.233 157.615 58.5531 157.91 57.9619C158.058 57.6663 158.235 57.4298 158.472 57.2229C158.738 57.016 159.034 56.8387 159.359 56.75C159.713 56.6317 160.068 56.5726 160.452 56.5726C161.014 56.5726 161.546 56.6613 162.078 56.8387C162.551 57.016 162.995 57.2821 163.379 57.5776L162.817 58.3166C162.462 58.021 162.078 57.7846 161.635 57.6072C161.251 57.4594 160.837 57.4003 160.423 57.3707C160.186 57.3707 159.92 57.4003 159.684 57.4594C159.477 57.5481 159.3 57.6368 159.122 57.755C158.974 57.8732 158.856 58.021 158.768 58.1984C158.679 58.3757 158.649 58.5531 158.649 58.7305C158.708 58.9669 158.768 59.1443 158.797 59.3512Z" fill="#3C4A58"/>
<path d="M169.084 56.6909V65.1152H168.108V56.6909H169.084Z" fill="#3C4A58"/>
<path d="M177.922 62.8096H177.892L174.818 58.3166V65.1448H173.902V56.7204H174.877L177.951 61.3021L181.026 56.7204H182.001V65.1448H181.026V58.3166L177.922 62.8096Z" fill="#3C4A58"/>
<path d="M192.731 60.5631C192.554 60.8883 192.317 61.2134 192.022 61.4499C191.696 61.6864 191.342 61.8637 190.957 61.982C190.544 62.1002 190.13 62.1593 189.686 62.1593H187.706V65.1448H186.73V56.7204H189.893C190.337 56.6909 190.751 56.75 191.164 56.8978C191.519 57.016 191.874 57.1934 192.169 57.4298C192.435 57.6663 192.642 57.9323 192.79 58.2575C192.938 58.6122 192.997 58.9965 193.027 59.4103C192.997 59.8241 192.908 60.2084 192.731 60.5631ZM191.401 58.021C190.928 57.6959 190.366 57.5185 189.775 57.5481H187.617V61.2134H189.686C190.012 61.2134 190.337 61.1839 190.662 61.0952C190.928 61.0065 191.194 60.8587 191.401 60.7109C191.608 60.5631 191.756 60.3562 191.874 60.1493C191.992 59.9128 192.051 59.6468 192.051 59.4103C192.051 58.8487 191.815 58.3462 191.401 58.021Z" fill="#3C4A58"/>
<path d="M197.106 56.6909H198.081V64.2285H202.811V65.1152H197.106V56.6909Z" fill="#3C4A58"/>
<path d="M207.924 56.6909V65.1152H206.949V56.6909H207.924Z" fill="#3C4A58"/>
<path d="M218.773 57.5776H213.688V60.5631H218.241V61.4499H213.688V65.1152H212.713V56.6909H218.743L218.773 57.5776Z" fill="#3C4A58"/>
<path d="M224.034 56.6909V65.1152H223.059V56.6909H224.034Z" fill="#3C4A58"/>
<path d="M234.912 57.5185H229.798V60.3858H234.35V61.2725H229.798V64.2285H234.971V65.1152H228.852V56.6909H234.882V57.5185H234.912Z" fill="#3C4A58"/>
<path d="M246.351 62.5436C246.144 63.0461 245.849 63.4895 245.435 63.8738C245.021 64.2285 244.548 64.5536 244.046 64.7605C243.484 64.9675 242.863 65.0857 242.243 65.0561H239.346V56.6318H242.243C242.863 56.6022 243.455 56.7204 244.046 56.9274C244.548 57.1343 245.021 57.4299 245.435 57.8141C245.819 58.1984 246.144 58.6418 246.351 59.1443C246.558 59.6764 246.676 60.238 246.647 60.8292C246.647 61.4204 246.529 62.0115 246.351 62.5436ZM245.435 59.5877C245.258 59.2034 245.021 58.8487 244.726 58.5236C244.4 58.228 244.046 57.9619 243.632 57.8141C243.159 57.6368 242.686 57.5481 242.183 57.5481H240.203V64.1989H242.183C242.686 64.1989 243.159 64.1102 243.632 63.9329C244.046 63.7851 244.4 63.5486 244.726 63.2235C245.021 62.9279 245.258 62.5732 245.435 62.1593C245.612 61.7455 245.701 61.3021 245.701 60.8292C245.671 60.4449 245.583 60.0015 245.435 59.5877Z" fill="#3C4A58"/>
<path d="M0.029559 78.4589C0.177355 77.6312 0.650302 76.9218 1.33016 76.4784C5.61624 73.7885 9.991 71.1873 14.3362 68.5861C14.7796 68.1723 15.2525 67.8175 15.755 67.522C14.5727 67.049 13.6859 66.783 12.7991 66.3691C8.15833 64.3 5.37977 59.4818 5.94139 54.4272C6.03007 53.2449 6.56214 52.3581 7.77406 52.4468C8.98599 52.5354 9.37026 53.4222 9.37026 54.6637C9.37026 60.9303 13.006 64.4774 18.9474 63.9453C20.3367 63.8566 21.6964 63.5019 22.9675 62.9403C26.1303 61.3145 29.2045 59.5114 32.2786 57.7083C36.7421 55.0775 41.2646 52.3876 45.6394 49.55C46.9991 48.6041 48.2406 47.5104 49.3343 46.2985C52.1424 43.2539 52.6449 39.9137 50.9009 36.6622C49.2456 33.0855 45.4029 31.105 41.5306 31.8145C37.7175 32.4352 34.466 34.2679 31.2145 36.2483C27.8743 38.2879 24.5932 40.3866 21.1939 42.3671C20.6027 42.7514 19.8933 42.8696 19.2135 42.7218C18.6518 42.4558 18.2971 41.9237 18.2085 41.303C18.2971 40.6231 18.6814 40.0023 19.243 39.5885C22.1989 37.6967 25.214 35.8936 28.2586 34.0314C30.3868 32.7603 32.456 31.4302 34.6434 30.2478C37.6584 28.5629 41.1464 27.8535 44.5752 28.2378C53.8864 29.2132 56.8423 38.6722 53.9751 45.4117C52.3197 49.2839 49.3343 51.7078 45.8167 53.7769C31.5101 62.3195 17.2626 70.9508 2.98548 79.5525C2.54209 79.8481 2.03958 79.9959 1.50752 79.9959C0.738979 80.055 0.0591184 79.4639 0 78.6953C0.0295592 78.6066 0.029559 78.5475 0.029559 78.4589Z" fill="#46B979"/>
<path d="M17.3216 51.7669C8.01044 50.7914 5.05452 41.3325 7.92176 34.593C9.57707 30.7207 12.5626 28.2969 16.0801 26.2278C30.3867 17.6852 44.6343 9.05387 58.9113 0.452156C60.4189 -0.464178 61.9264 0.0678868 61.8968 1.5754C61.749 2.3735 61.3056 3.11248 60.5962 3.55587C56.3101 6.24575 51.9354 8.84696 47.5902 11.4482C47.1468 11.8029 46.7625 12.0689 46.1713 12.5123C47.3537 12.9852 48.2405 13.2513 49.1273 13.6651C53.768 15.7342 56.5466 20.5524 55.9554 25.607C55.8667 26.7894 55.3347 27.6762 54.1228 27.5875C52.9108 27.4988 52.5266 26.612 52.5266 25.4001C52.5266 19.1336 48.8908 15.5865 42.9494 16.1185C41.5601 16.2072 40.2004 16.5619 38.9293 17.1235C35.7665 18.7493 32.6924 20.5524 29.6182 22.3555C25.1548 24.9863 20.6322 27.6762 16.2574 30.5138C14.8977 31.4597 13.6562 32.5534 12.5626 33.7653C9.75443 36.8099 9.28148 40.1501 10.9959 43.4016C12.6512 46.9783 16.4939 48.9588 20.3662 48.2493C24.1793 47.6286 27.4308 45.7959 30.6823 43.8155C34.0225 41.8054 37.3036 39.6772 40.7029 37.6967C41.2941 37.3124 42.0035 37.1942 42.6834 37.342C43.245 37.608 43.6292 38.1401 43.6884 38.7608C43.5997 39.4407 43.2154 40.0614 42.6538 40.4753C39.6979 42.3671 36.6828 44.1702 33.6382 46.0324C31.51 47.3034 29.4408 48.6336 27.2535 49.816C24.7705 51.2053 21.9919 51.9442 19.1542 51.9147C18.5335 51.8556 17.9423 51.826 17.3216 51.7669Z" fill="#3C4A58"/>
</svg>
